<?xml version="1.0" encoding="UTF-8"?>
<svg width="36px" height="36px" viewBox="0 0 36 36" version="1.1" xmlns="http://www.w3.org/2000/svg" xmlns:xlink="http://www.w3.org/1999/xlink">
    <!-- Generator: Sketch 49 (51002) - http://www.bohemiancoding.com/sketch -->
    <title>list</title>
    <desc>Created with Sketch.</desc>
    <defs></defs>
    <g id="Page-1" stroke="none" stroke-width="1" fill="none" fill-rule="evenodd">
        <g id="01_Home" transform="translate(-1066.000000, -660.000000)" fill="#FFFFFF" fill-rule="nonzero">
            <g id="1" transform="translate(1035.000000, 600.000000)">
                <g id="list" transform="translate(31.000000, 60.000000)">
                    <path d="M35.4375,20.9494286 L33.6053571,19.1172857 C32.8570714,18.369 31.6401429,18.3702857 30.8918571,19.1172857 L20.9982857,29.0115 L19.6347857,34.0122857 L19.3011429,34.3459286 C19.0517143,34.5953571 19.0510714,34.9977857 19.2972857,35.2491429 L19.2940714,35.262 L19.3062857,35.2587857 C19.431,35.3809286 19.593,35.4439286 19.7556429,35.4439286 C19.9202143,35.4439286 20.0847857,35.3809286 20.2101429,35.2555714 L20.5444286,34.9212857 L25.5445714,33.5577857 L35.4381429,23.6635714 C36.1864286,22.9152857 36.1864286,21.6977143 35.4375,20.9494286 Z M22.4826429,29.3457857 L29.0674286,22.7616429 L31.7950714,25.4886429 L25.2102857,32.0734286 L22.4826429,29.3457857 Z M21.9021429,30.5832857 L23.9721429,32.6532857 L21.1255714,33.4298571 L21.9021429,30.5832857 Z M34.5285,22.7545714 L32.7034286,24.5796429 L29.9757857,21.8526429 L31.8008571,20.0275714 C32.0483571,19.7800714 32.4501429,19.7807143 32.697,20.0269286 L34.5291429,21.8590714 C34.776,22.1052857 34.776,22.5077143 34.5285,22.7545714 Z" id="Shape"></path>
                    <path d="M17.3571429,8.27035714 C17.0022857,8.27035714 16.7142857,8.55771429 16.7142857,8.91321429 C16.7142857,9.26871429 17.0022857,9.55607143 17.3571429,9.55607143 L28.9285714,9.55607143 C29.2834286,9.55607143 29.5714286,9.26871429 29.5714286,8.91321429 C29.5714286,8.55771429 29.2834286,8.27035714 28.9285714,8.27035714 L17.3571429,8.27035714 Z" id="Shape"></path>
                    <path d="M29.5714286,17.9132143 C29.5714286,17.5577143 29.2834286,17.2703571 28.9285714,17.2703571 L17.3571429,17.2703571 C17.0022857,17.2703571 16.7142857,17.5577143 16.7142857,17.9132143 C16.7142857,18.2687143 17.0022857,18.5560714 17.3571429,18.5560714 L28.9285714,18.5560714 C29.2834286,18.5560714 29.5714286,18.2680714 29.5714286,17.9132143 Z" id="Shape"></path>
                    <path d="M13.23,5.211 C12.9612857,4.97957143 12.555,5.00978571 12.3235714,5.28042857 L8.307,9.96557143 L5.85,8.12314286 C5.56585714,7.911 5.16342857,7.96757143 4.95,8.25171429 C4.73657143,8.53521429 4.79442857,8.93828571 5.07857143,9.15107143 L8.01707143,11.3554286 C8.13278571,11.4422143 8.26778571,11.484 8.40278571,11.484 C8.58471429,11.484 8.76471429,11.4075 8.89135714,11.259 L13.2994286,6.11614286 C13.5302143,5.84742857 13.4993571,5.44178571 13.23,5.211 Z" id="Shape"></path>
                    <path d="M13.23,14.211 C12.9612857,13.9795714 12.555,14.0097857 12.3235714,14.2804286 L8.307,18.9655714 L5.85,17.1231429 C5.56585714,16.9103571 5.16342857,16.9682143 4.95,17.2517143 C4.73657143,17.5352143 4.79442857,17.9382857 5.07857143,18.1510714 L8.01707143,20.3554286 C8.13278571,20.4422143 8.26778571,20.484 8.40278571,20.484 C8.58471429,20.484 8.76471429,20.4075 8.89135714,20.259 L13.2994286,15.1161429 C13.5302143,14.8474286 13.4993571,14.4417857 13.23,14.211 Z" id="Shape"></path>
                    <path d="M12.3229286,23.9232857 L8.30635714,28.6077857 L5.85,26.7653571 C5.56585714,26.5525714 5.16342857,26.6104286 4.95,26.8939286 C4.73657143,27.1774286 4.79442857,27.5805 5.07857143,27.7932857 L8.01707143,29.9976429 C8.13278571,30.0844286 8.26778571,30.1262143 8.40278571,30.1262143 C8.58471429,30.1262143 8.76471429,30.0497143 8.89135714,29.9012143 L13.2994286,24.759 C13.5302143,24.4896429 13.4993571,24.084 13.23,23.8532143 C12.9606429,23.6224286 12.5543571,23.6532857 12.3229286,23.9232857 Z" id="Shape"></path>
                    <path d="M16.0714286,33.9846429 L7.82742857,33.9846429 C4.22035714,33.9846429 1.28571429,31.05 1.28571429,27.4429286 L1.28571429,8.38285714 C1.28571429,4.77578571 4.22035714,1.84178571 7.82742857,1.84178571 L26.8868571,1.84178571 C30.4939286,1.84178571 33.4285714,4.77578571 33.4285714,8.38285714 L33.4285714,15.984 C33.4285714,16.3395 33.7165714,16.6268571 34.0714286,16.6268571 C34.4262857,16.6268571 34.7142857,16.3395 34.7142857,15.984 L34.7142857,8.38285714 C34.7142857,4.06671429 31.203,0.555428571 26.8868571,0.555428571 L7.82742857,0.555428571 C3.51128571,0.556071429 0,4.06671429 0,8.38285714 L0,27.4422857 C0,31.7584286 3.51128571,35.2697143 7.82742857,35.2697143 L16.0714286,35.2697143 C16.4262857,35.2697143 16.7142857,34.9823571 16.7142857,34.6268571 C16.7142857,34.2713571 16.4262857,33.9846429 16.0714286,33.9846429 Z" id="Shape"></path>
                </g>
            </g>
        </g>
    </g>
</svg>