<?xml version="1.0" encoding="UTF-8"?>
<svg width="177px" height="46px" viewBox="0 0 177 46" version="1.1" xmlns="http://www.w3.org/2000/svg" xmlns:xlink="http://www.w3.org/1999/xlink">
    <!-- Generator: Sketch 49 (51002) - http://www.bohemiancoding.com/sketch -->
    <title>default</title>
    <desc>Created with Sketch.</desc>
    <defs></defs>
    <g id="Page-1" stroke="none" stroke-width="1" fill="none" fill-rule="evenodd">
        <g id="default" fill="#FFFFFF">
            <g id="compass">
                <path d="M34.9008828,42.6853047 C35.7496367,42.1710391 36.0209648,41.0662305 35.5067891,40.2173867 C34.9925234,39.3684531 33.8877148,39.0973047 33.0388711,39.6114805 C30.02075,41.4398906 26.5492773,42.40625 23,42.40625 C12.2993398,42.40625 3.59375,33.7006602 3.59375,23 C3.59375,12.2993398 12.2993398,3.59375 23,3.59375 C33.7006602,3.59375 42.40625,12.2993398 42.40625,23 C42.40625,26.8263555 41.2683789,30.5508281 39.1156328,33.7708281 C38.5639922,34.5958633 38.7857266,35.7118125 39.6106719,36.2632734 C40.4358867,36.8149141 41.5516563,36.5931797 42.1031172,35.7682344 C44.6525234,31.9550859 46,27.5398047 46,23 C46,16.8564844 43.6075508,11.0806992 39.2635156,6.73648437 C34.9193008,2.39244922 29.1435156,0 23,0 C16.8564844,0 11.0806992,2.39244922 6.73648438,6.73648438 C2.39244922,11.0806992 0,16.8564844 0,23 C0,29.1435156 2.39244922,34.9193008 6.73648438,39.2635156 C11.0806992,43.6075508 16.8564844,46 23,46 C27.2058555,46 31.3210586,44.8537734 34.9008828,42.6853047 Z" id="Shape" fill-rule="nonzero"></path>
                <path d="M26.0808511,31.8170213 C26.5404277,31.8170213 26.9148921,31.9702112 27.2212766,32.2765957 C27.5390087,32.5943278 27.6978723,32.9687922 27.6978723,33.4 C27.6978723,33.8425554 27.5390087,34.2226934 27.2212766,34.5404255 C26.9148921,34.84681 26.5404277,35 26.0978723,35 C24.1290683,35 22.4609998,34.3078083 21.0765957,32.9234043 C19.6921917,31.5390002 19,29.8709317 19,27.9191489 L19,12.5829787 C19,12.1517709 19.15319,11.7773066 19.4595745,11.4595745 C19.7773066,11.15319 20.1574446,11 20.6,11 C21.0312078,11 21.4056722,11.15319 21.7234043,11.4595745 C22.0297888,11.7773066 22.1829787,12.1517709 22.1829787,12.5829787 L22.1829787,17.8595745 L24.7531915,17.8595745 C25.1957469,17.8595745 25.5702112,18.0127644 25.8765957,18.3191489 C26.1943278,18.6255334 26.3531915,18.9999978 26.3531915,19.4425532 C26.3531915,19.8851086 26.1943278,20.2595729 25.8765957,20.5659574 C25.5702112,20.8836895 25.1957469,21.0425532 24.7531915,21.0425532 L22.1829787,21.0425532 L22.1829787,27.9191489 C22.1829787,28.9971685 22.5631168,29.9163083 23.3234043,30.6765957 C24.0836917,31.4368832 25.0028315,31.8170213 26.0808511,31.8170213 Z" id="t" stroke="#FFFFFF" stroke-width="0.6"></path>
            </g>
            <g id="Group" transform="translate(60.000000, 6.000000)">
                <path d="M3.98,1.15 C4.0000001,1.0299994 4.05499955,0.92500045 4.145,0.835 C4.23500045,0.74499955 4.3599992,0.7 4.52,0.7 L5,0.7 C5.2400012,0.7 5.4099995,0.799999 5.51,1 L12.11,15.16 L12.2,15.16 L18.8,1 C18.9000005,0.799999 19.0699988,0.7 19.31,0.7 L19.79,0.7 C19.9500008,0.7 20.0749996,0.74499955 20.165,0.835 C20.2550005,0.92500045 20.3099999,1.0299994 20.33,1.15 L23.87,21.31 C23.9100002,21.5300011 23.8800005,21.6999994 23.78,21.82 C23.6799995,21.9400006 23.530001,22 23.33,22 L20.6,22 C20.4599993,22 20.3400005,21.9500005 20.24,21.85 C20.1399995,21.7499995 20.0700002,21.6500005 20.03,21.55 L18.26,10.18 L18.17,10.18 L12.92,21.97 C12.8399996,22.1900011 12.6700013,22.3 12.41,22.3 L11.87,22.3 C11.6299988,22.3 11.4600005,22.1900011 11.36,21.97 L6.05,10.18 L5.96,10.18 L4.22,21.55 C4.1999999,21.6500005 4.1400005,21.7499995 4.04,21.85 C3.9399995,21.9500005 3.8200007,22 3.68,22 L0.98,22 C0.5399978,22 0.3499997,21.7700023 0.41,21.31 L3.98,1.15 Z M27.83,1.57 C27.83,1.4099992 27.8849995,1.27500055 27.995,1.165 C28.1050006,1.05499945 28.2399992,1 28.4,1 L31.19,1 C31.3500008,1 31.4849995,1.05499945 31.595,1.165 C31.7050006,1.27500055 31.76,1.4099992 31.76,1.57 L31.76,21.43 C31.76,21.5900008 31.7050006,21.7249994 31.595,21.835 C31.4849995,21.9450005 31.3500008,22 31.19,22 L28.4,22 C28.2399992,22 28.1050006,21.9450005 27.995,21.835 C27.8849995,21.7249994 27.83,21.5900008 27.83,21.43 L27.83,1.57 Z M41.3,11.23 L35.3,1.84 C35.1799994,1.639999 35.1699995,1.4500009 35.27,1.27 C35.3700005,1.0899991 35.5499987,1 35.81,1 L39.29,1 C39.4100006,1 39.5099996,1.0299997 39.59,1.09 C39.6700004,1.1500003 39.7299998,1.2099997 39.77,1.27 L43.55,7.63 L43.67,7.63 L47.54,1.27 C47.5800002,1.2099997 47.6399996,1.1500003 47.72,1.09 C47.8000004,1.0299997 47.8999994,1 48.02,1 L51.5,1 C51.7600013,1 51.9399995,1.0899991 52.04,1.27 C52.1400005,1.4500009 52.1300006,1.639999 52.01,1.84 L45.98,11.23 L52.22,21.16 C52.3400006,21.3800011 52.3500005,21.5749991 52.25,21.745 C52.1499995,21.9150008 51.9700013,22 51.71,22 L48.47,22 C48.3499994,22 48.2450005,21.9700003 48.155,21.91 C48.0649996,21.8499997 48.0000002,21.7900003 47.96,21.73 L43.67,14.86 L43.55,14.86 L39.35,21.73 C39.3099998,21.7900003 39.2450005,21.8499997 39.155,21.91 C39.0649996,21.9700003 38.9600006,22 38.84,22 L35.6,22 C35.3199986,22 35.1300005,21.9100009 35.03,21.73 C34.9299995,21.5499991 34.9399994,21.360001 35.06,21.16 L41.3,11.23 Z M57.95,1.15 C57.9700001,1.0299994 58.0249996,0.92500045 58.115,0.835 C58.2050005,0.74499955 58.3299992,0.7 58.49,0.7 L58.97,0.7 C59.2100012,0.7 59.3799995,0.799999 59.48,1 L66.08,15.16 L66.17,15.16 L72.77,1 C72.8700005,0.799999 73.0399988,0.7 73.28,0.7 L73.76,0.7 C73.9200008,0.7 74.0449996,0.74499955 74.135,0.835 C74.2250005,0.92500045 74.2799999,1.0299994 74.3,1.15 L77.84,21.31 C77.8800002,21.5300011 77.8500005,21.6999994 77.75,21.82 C77.6499995,21.9400006 77.500001,22 77.3,22 L74.57,22 C74.4299993,22 74.3100005,21.9500005 74.21,21.85 C74.1099995,21.7499995 74.0400002,21.6500005 74,21.55 L72.23,10.18 L72.14,10.18 L66.89,21.97 C66.8099996,22.1900011 66.6400013,22.3 66.38,22.3 L65.84,22.3 C65.5999988,22.3 65.4300005,22.1900011 65.33,21.97 L60.02,10.18 L59.93,10.18 L58.19,21.55 C58.1699999,21.6500005 58.1100005,21.7499995 58.01,21.85 C57.9099995,21.9500005 57.7900007,22 57.65,22 L54.95,22 C54.5099978,22 54.3199997,21.7700023 54.38,21.31 L57.95,1.15 Z M79.82,22 C79.5999989,22 79.4350006,21.9200008 79.325,21.76 C79.2149995,21.5999992 79.2099995,21.420001 79.31,21.22 L88.64,1.03 C88.7400005,0.8099989 88.9099988,0.7 89.15,0.7 L89.45,0.7 C89.6100008,0.7 89.7249997,0.7299997 89.795,0.79 C89.8650004,0.8500003 89.9199998,0.9299995 89.96,1.03 L99.2,21.22 C99.3000005,21.420001 99.2950005,21.5999992 99.185,21.76 C99.0749995,21.9200008 98.9100011,22 98.69,22 L96.08,22 C95.8599989,22 95.6850007,21.9550004 95.555,21.865 C95.4249994,21.7749995 95.3100005,21.6200011 95.21,21.4 L93.74,18.16 L84.77,18.16 L83.3,21.4 C83.2399997,21.5600008 83.1400007,21.6999994 83,21.82 C82.8599993,21.9400006 82.6700012,22 82.43,22 L79.82,22 Z M92.27,14.83 L89.27,8.23 L89.18,8.23 L86.24,14.83 L92.27,14.83 Z M101.84,1.57 C101.84,1.4099992 101.894999,1.27500055 102.005,1.165 C102.115001,1.05499945 102.249999,1 102.41,1 L109.46,1 C110.380005,1 111.249996,1.17499825 112.07,1.525 C112.890004,1.87500175 113.604997,2.349997 114.215,2.95 C114.825003,3.550003 115.304998,4.25499595 115.655,5.065 C116.005002,5.87500405 116.18,6.7299955 116.18,7.63 C116.18,8.5700047 116.005002,9.44499595 115.655,10.255 C115.304998,11.065004 114.825003,11.7799969 114.215,12.4 C113.604997,13.0200031 112.895004,13.5049982 112.085,13.855 C111.274996,14.2050017 110.410005,14.38 109.49,14.38 L105.74,14.38 L105.74,21.43 C105.74,21.5900008 105.685001,21.7249994 105.575,21.835 C105.464999,21.9450005 105.330001,22 105.17,22 L102.41,22 C102.249999,22 102.115001,21.9450005 102.005,21.835 C101.894999,21.7249994 101.84,21.5900008 101.84,21.43 L101.84,1.57 Z M109.34,10.72 C109.760002,10.72 110.149998,10.6400008 110.51,10.48 C110.870002,10.3199992 111.184999,10.1000014 111.455,9.82 C111.725001,9.5399986 111.934999,9.2100019 112.085,8.83 C112.235001,8.4499981 112.31,8.0400022 112.31,7.6 C112.31,7.1799979 112.235001,6.79500175 112.085,6.445 C111.934999,6.09499825 111.725001,5.7900013 111.455,5.53 C111.184999,5.2699987 110.870002,5.06500075 110.51,4.915 C110.149998,4.76499925 109.760002,4.69 109.34,4.69 L105.74,4.69 L105.74,10.72 L109.34,10.72 Z" id="MIXMAP"></path>
                <path d="M10.07,29.05 L10.07,36 L8.93,36 L8.93,31.24 L6.81,36 L6.02,36 L3.89,31.24 L3.89,36 L2.75,36 L2.75,29.05 L3.98,29.05 L6.42,34.5 L8.85,29.05 L10.07,29.05 Z M12.87,29.03 C12.87,29.2366677 12.8000007,29.4099993 12.66,29.55 C12.5199993,29.6900007 12.3483344,29.76 12.145,29.76 C11.9416656,29.76 11.7700007,29.6900007 11.63,29.55 C11.4899993,29.4099993 11.42,29.2366677 11.42,29.03 C11.42,28.8233323 11.4899993,28.6500007 11.63,28.51 C11.7700007,28.3699993 11.9416656,28.3 12.145,28.3 C12.3483344,28.3 12.5199993,28.3699993 12.66,28.51 C12.8000007,28.6500007 12.87,28.8233323 12.87,29.03 Z M11.57,36 L11.57,30.49 L12.71,30.49 L12.71,36 L11.57,36 Z M18.35,30.49 L16.57,33.21 L18.35,36 L17.06,36 L15.87,34.13 L14.75,36 L13.56,36 L15.34,33.29 L13.56,30.49 L14.85,30.49 L16.04,32.36 L17.16,30.49 L18.35,30.49 Z M26.89,36 L26.39,34.58 L23.48,34.58 L22.98,36 L21.79,36 L24.28,29.04 L25.6,29.04 L28.09,36 L26.89,36 Z M23.79,33.69 L26.08,33.69 L24.94,30.42 L23.79,33.69 Z M29.17,36 L29.17,28.6 L30.31,28.6 L30.31,36 L29.17,36 Z M31.81,36 L31.81,28.6 L32.95,28.6 L32.95,36 L31.81,36 Z M39.61,29.89 C39.2699983,29.89 38.9933344,29.9766658 38.78,30.15 C38.5666656,30.3233342 38.46,30.5749984 38.46,30.905 C38.46,31.2350017 38.5866654,31.4866658 38.84,31.66 C39.0933346,31.8333342 39.3999982,31.9599996 39.76,32.04 C40.1200018,32.1200004 40.4799982,32.2116661 40.84,32.315 C41.2000018,32.4183338 41.5066654,32.6099986 41.76,32.89 C42.0133346,33.1700014 42.14,33.5666641 42.14,34.08 C42.14,34.5933359 41.9233355,35.0533313 41.49,35.46 C41.0566645,35.8666687 40.4766703,36.07 39.75,36.07 C39.0233297,36.07 38.4333356,35.9000017 37.98,35.56 C37.5266644,35.2199983 37.3,34.750003 37.3,34.15 L38.52,34.15 C38.5466668,34.4566682 38.659999,34.6999991 38.86,34.88 C39.060001,35.0600009 39.3533314,35.15 39.74,35.15 C40.1266686,35.15 40.4316655,35.050001 40.655,34.85 C40.8783344,34.649999 40.99,34.4133347 40.99,34.14 C40.99,33.8666653 40.9216673,33.6533341 40.785,33.5 C40.6483326,33.3466659 40.4716677,33.231667 40.255,33.155 C40.0383322,33.078333 39.8000013,33.0100003 39.54,32.95 C39.2799987,32.8899997 39.0183346,32.8200004 38.755,32.74 C38.4916653,32.6599996 38.2516677,32.5566673 38.035,32.43 C37.8183322,32.3033327 37.6416673,32.1183346 37.505,31.875 C37.3683326,31.6316654 37.3,31.3333351 37.3,30.98 C37.3,30.3733303 37.5183312,29.8850019 37.955,29.515 C38.3916688,29.1449981 38.9583298,28.96 39.655,28.96 C40.3516701,28.96 40.9083312,29.1199984 41.325,29.44 C41.7416687,29.7600016 41.9733331,30.2233303 42.02,30.83 L40.76,30.83 C40.7333332,30.563332 40.620001,30.3400009 40.42,30.16 C40.219999,29.9799991 39.9500017,29.89 39.61,29.89 Z M45.81,36.09 C45.009996,36.09 44.3600025,35.8300026 43.86,35.31 C43.3599975,34.7899974 43.11,34.1000043 43.11,33.24 C43.11,32.3799957 43.3633308,31.6916693 43.87,31.175 C44.3766692,30.6583307 45.0316627,30.4 45.835,30.4 C46.6383374,30.4 47.2899975,30.6483309 47.79,31.145 C48.2900025,31.6416691 48.54,32.289996 48.54,33.09 C48.54,33.2833343 48.5266668,33.4633325 48.5,33.63 L44.28,33.63 C44.3066668,34.0900023 44.4616653,34.4549987 44.745,34.725 C45.0283347,34.9950013 45.3833312,35.13 45.81,35.13 C46.4300031,35.13 46.8666654,34.8733359 47.12,34.36 L48.35,34.36 C48.1833325,34.8666692 47.8800022,35.2816651 47.44,35.605 C46.9999978,35.9283349 46.4566699,36.09 45.81,36.09 Z M47.35,32.85 C47.3433333,32.3966644 47.1933348,32.0350014 46.9,31.765 C46.6066652,31.4949986 46.2500021,31.36 45.83,31.36 C45.4099979,31.36 45.0583347,31.4949986 44.775,31.765 C44.4916652,32.0350014 44.3300002,32.3966644 44.29,32.85 L47.35,32.85 Z M50.8,30.49 L50.8,31.45 C51.1533351,30.7499965 51.7033296,30.4 52.45,30.4 L52.45,31.58 L52.16,31.58 C51.7133311,31.58 51.3750012,31.6933322 51.145,31.92 C50.9149989,32.1466678 50.8,32.5399972 50.8,33.1 L50.8,36 L49.66,36 L49.66,30.49 L50.8,30.49 Z M52.85,30.49 L54.07,30.49 L55.63,34.98 L57.19,30.49 L58.42,30.49 L56.32,36 L54.94,36 L52.85,30.49 Z M60.56,29.03 C60.56,29.2366677 60.4900007,29.4099993 60.35,29.55 C60.2099993,29.6900007 60.0383343,29.76 59.835,29.76 C59.6316657,29.76 59.4600007,29.6900007 59.32,29.55 C59.1799993,29.4099993 59.11,29.2366677 59.11,29.03 C59.11,28.8233323 59.1799993,28.6500007 59.32,28.51 C59.4600007,28.3699993 59.6316657,28.3 59.835,28.3 C60.0383343,28.3 60.2099993,28.3699993 60.35,28.51 C60.4900007,28.6500007 60.56,28.8233323 60.56,29.03 Z M59.26,36 L59.26,30.49 L60.4,30.49 L60.4,36 L59.26,36 Z M64.22,36.09 C63.419996,36.09 62.7700025,35.8300026 62.27,35.31 C61.7699975,34.7899974 61.52,34.1016709 61.52,33.245 C61.52,32.3883291 61.7716641,31.7000026 62.275,31.18 C62.7783359,30.6599974 63.4266627,30.4 64.22,30.4 C64.88667,30.4 65.4383312,30.5583318 65.875,30.875 C66.3116688,31.1916682 66.6066659,31.6433304 66.76,32.23 L65.53,32.23 C65.3233323,31.6499971 64.88667,31.36 64.22,31.36 C63.753331,31.36 63.3816681,31.5249984 63.105,31.855 C62.8283319,32.1850017 62.69,32.6466637 62.69,33.24 C62.69,33.8333363 62.8283319,34.296665 63.105,34.63 C63.3816681,34.963335 63.753331,35.13 64.22,35.13 C64.8800033,35.13 65.3166656,34.8400029 65.53,34.26 L66.76,34.26 C66.5999992,34.8200028 66.3000022,35.2649983 65.86,35.595 C65.4199978,35.9250016 64.8733366,36.09 64.22,36.09 Z M70.22,36.09 C69.419996,36.09 68.7700025,35.8300026 68.27,35.31 C67.7699975,34.7899974 67.52,34.1000043 67.52,33.24 C67.52,32.3799957 67.7733308,31.6916693 68.28,31.175 C68.7866692,30.6583307 69.4416627,30.4 70.245,30.4 C71.0483374,30.4 71.6999975,30.6483309 72.2,31.145 C72.7000025,31.6416691 72.95,32.289996 72.95,33.09 C72.95,33.2833343 72.9366668,33.4633325 72.91,33.63 L68.69,33.63 C68.7166668,34.0900023 68.8716653,34.4549987 69.155,34.725 C69.4383348,34.9950013 69.7933312,35.13 70.22,35.13 C70.8400031,35.13 71.2766654,34.8733359 71.53,34.36 L72.76,34.36 C72.5933325,34.8666692 72.2900022,35.2816651 71.85,35.605 C71.4099978,35.9283349 70.8666699,36.09 70.22,36.09 Z M71.76,32.85 C71.7533333,32.3966644 71.6033348,32.0350014 71.31,31.765 C71.0166652,31.4949986 70.6600021,31.36 70.24,31.36 C69.8199979,31.36 69.4683347,31.4949986 69.185,31.765 C68.9016653,32.0350014 68.7400002,32.3966644 68.7,32.85 L71.76,32.85 Z M73.82,32.07 C73.82,31.603331 74.0166647,31.208335 74.41,30.885 C74.8033353,30.5616651 75.3199968,30.4 75.96,30.4 C76.6000032,30.4 77.1083315,30.5583318 77.485,30.875 C77.8616686,31.1916682 78.0633332,31.6233306 78.09,32.17 L76.92,32.17 C76.8999999,31.8966653 76.8050009,31.6833341 76.635,31.53 C76.4649992,31.3766659 76.2266682,31.3 75.92,31.3 C75.6133318,31.3 75.3733342,31.3683326 75.2,31.505 C75.0266658,31.6416673 74.94,31.8216655 74.94,32.045 C74.94,32.2683344 75.0499989,32.4433327 75.27,32.57 C75.4900011,32.6966673 75.7583317,32.7899997 76.075,32.85 C76.3916683,32.9100003 76.7083318,32.9833329 77.025,33.07 C77.3416682,33.1566671 77.6099989,33.3149988 77.83,33.545 C78.0500011,33.7750012 78.16,34.0833314 78.16,34.47 C78.16,34.9500024 77.9583354,35.3399985 77.555,35.64 C77.1516647,35.9400015 76.6333365,36.09 76,36.09 C75.3666635,36.09 74.8533353,35.9366682 74.46,35.63 C74.0666647,35.3233318 73.8500002,34.8866695 73.81,34.32 L74.99,34.32 C75.0100001,34.5933347 75.1099991,34.8066659 75.29,34.96 C75.4700009,35.1133341 75.7149984,35.19 76.025,35.19 C76.3350016,35.19 76.5816658,35.1216673 76.765,34.985 C76.9483343,34.8483327 77.04,34.6666678 77.04,34.44 C77.04,34.2133322 76.9300011,34.0366673 76.71,33.91 C76.4899989,33.7833327 76.2216683,33.6883337 75.905,33.625 C75.5883318,33.5616663 75.2716683,33.4883337 74.955,33.405 C74.6383318,33.3216662 74.3700011,33.1700011 74.15,32.95 C73.9299989,32.7299989 73.82,32.4366685 73.82,32.07 Z M83.71,29.03 C83.71,29.2366677 83.6400007,29.4099993 83.5,29.55 C83.3599993,29.6900007 83.1883344,29.76 82.985,29.76 C82.7816657,29.76 82.6100007,29.6900007 82.47,29.55 C82.3299993,29.4099993 82.26,29.2366677 82.26,29.03 C82.26,28.8233323 82.3299993,28.6500007 82.47,28.51 C82.6100007,28.3699993 82.7816657,28.3 82.985,28.3 C83.1883344,28.3 83.3599993,28.3699993 83.5,28.51 C83.6400007,28.6500007 83.71,28.8233323 83.71,29.03 Z M82.41,36 L82.41,30.49 L83.55,30.49 L83.55,36 L82.41,36 Z M86.19,30.49 L86.19,31.36 C86.5566685,30.7199968 87.1433293,30.4 87.95,30.4 C88.5700031,30.4 89.0816647,30.6066646 89.485,31.02 C89.8883354,31.4333354 90.09,32.0099963 90.09,32.75 L90.09,36 L88.96,36 L88.96,32.92 C88.96,32.4266642 88.8366679,32.0483347 88.59,31.785 C88.3433321,31.5216653 88.0066688,31.39 87.58,31.39 C87.1533312,31.39 86.8150013,31.5216653 86.565,31.785 C86.3149988,32.0483347 86.19,32.4266642 86.19,32.92 L86.19,36 L85.05,36 L85.05,30.49 L86.19,30.49 Z M97.71,35.04 C98.4100035,35.04 98.9816644,34.8083357 99.425,34.345 C99.8683355,33.8816644 100.09,33.2716705 100.09,32.515 C100.09,31.7583295 99.8683355,31.1500023 99.425,30.69 C98.9816644,30.2299977 98.4100035,30 97.71,30 C97.0099965,30 96.4383355,30.2299977 95.995,30.69 C95.5516644,31.1500023 95.33,31.7583295 95.33,32.515 C95.33,33.2716705 95.5516644,33.8816644 95.995,34.345 C96.4383355,34.8083357 97.0099965,35.04 97.71,35.04 Z M97.71,36.07 C96.7166617,36.07 95.8766701,35.7350033 95.19,35.065 C94.5033299,34.3949966 94.16,33.5450052 94.16,32.515 C94.16,31.4849948 94.5033299,30.6350033 95.19,29.965 C95.8766701,29.2949967 96.7183284,28.96 97.715,28.96 C98.7116716,28.96 99.5516633,29.2949967 100.235,29.965 C100.918337,30.6350033 101.26,31.4849948 101.26,32.515 C101.26,33.5450052 100.918337,34.3949966 100.235,35.065 C99.5516633,35.7350033 98.710005,36.07 97.71,36.07 Z M103.52,30.49 L103.52,31.36 C103.886668,30.7199968 104.473329,30.4 105.28,30.4 C105.900003,30.4 106.411665,30.6066646 106.815,31.02 C107.218335,31.4333354 107.42,32.0099963 107.42,32.75 L107.42,36 L106.29,36 L106.29,32.92 C106.29,32.4266642 106.166668,32.0483347 105.92,31.785 C105.673332,31.5216653 105.336669,31.39 104.91,31.39 C104.483331,31.39 104.145001,31.5216653 103.895,31.785 C103.644999,32.0483347 103.52,32.4266642 103.52,32.92 L103.52,36 L102.38,36 L102.38,30.49 L103.52,30.49 Z M111.19,36.09 C110.389996,36.09 109.740002,35.8300026 109.24,35.31 C108.739998,34.7899974 108.49,34.1000043 108.49,33.24 C108.49,32.3799957 108.743331,31.6916693 109.25,31.175 C109.756669,30.6583307 110.411663,30.4 111.215,30.4 C112.018337,30.4 112.669997,30.6483309 113.17,31.145 C113.670002,31.6416691 113.92,32.289996 113.92,33.09 C113.92,33.2833343 113.906667,33.4633325 113.88,33.63 L109.66,33.63 C109.686667,34.0900023 109.841665,34.4549987 110.125,34.725 C110.408335,34.9950013 110.763331,35.13 111.19,35.13 C111.810003,35.13 112.246665,34.8733359 112.5,34.36 L113.73,34.36 C113.563332,34.8666692 113.260002,35.2816651 112.82,35.605 C112.379998,35.9283349 111.83667,36.09 111.19,36.09 Z M112.73,32.85 C112.723333,32.3966644 112.573335,32.0350014 112.28,31.765 C111.986665,31.4949986 111.630002,31.36 111.21,31.36 C110.789998,31.36 110.438335,31.4949986 110.155,31.765 C109.871665,32.0350014 109.71,32.3966644 109.67,32.85 L112.73,32.85 Z" id="Mix-All-Services-in"></path>
            </g>
        </g>
    </g>
</svg>